# xmcd
#
# Track frame offsets: 
#        150
#        10823
#        27820
#        36917
#        48926
#        62899
#        75354
#        88310
#        98347
#        110911
#        124174
#        136127
#        143315
#        158486
#        166482
#
# Disc length: 2349 seconds
#
# Revision: 0
# Processed by: cddbd v1.5.2PL0 Copyright (c) Steve Scherf et al.
# Submitted via: ExactAudioCopy v1.0b4
#
DISCID=b3092b0f
DTITLE=Blind John Davis - Live in Hamburg (LP)
DYEAR=1900
DGENRE=Blues
TTITLE0=My Own Boogie
TTITLE1=Everyday I Have The Blues
TTITLE2=Texas Tony
TTITLE3=Trouble In Mind
TTITLE4=If I Had A Listen
TTITLE5=St Louis Blues
TTITLE6=After Hours
TTITLE7=How Long Blues
TTITLE8=Everybodys Boogie
TTITLE9=Memphis Blues
TTITLE10=Rockin' Chair Boogie
TTITLE11=The House Of Blue Lights
TTITLE12=C C Rider
TTITLE13=Run Away Boogie
TTITLE14=Pinetop Boogie
EXTD=
EXTT0=
EXTT1=
EXTT2=
EXTT3=
EXTT4=
EXTT5=
EXTT6=
EXTT7=
EXTT8=
EXTT9=
EXTT10=
EXTT11=
EXTT12=
EXTT13=
EXTT14=
PLAYORDER=
